<svg width="43" height="31" viewBox="0 0 43 31" fill="none" xmlns="http://www.w3.org/2000/svg">
<path d="M9 30.4375C6.45833 30.4375 4.3125 29.6042 2.5625 27.9375C0.854167 26.3125 0 24.1667 0 21.5C0 18.25 1.375 14.625 4.125 10.625C6.91667 6.66667 10.625 3.125 15.25 0L17.1875 1.9375C15.3958 3.85417 13.9792 5.625 12.9375 7.25C11.9375 8.83333 11.4375 10.125 11.4375 11.125C11.4375 11.9583 11.7708 12.6458 12.4375 13.1875C12.6458 13.3958 13.2083 13.8958 14.125 14.6875C15.0833 15.4792 15.9167 16.4167 16.625 17.5C17.25 18.5 17.5625 19.8333 17.5625 21.5C17.5625 24.125 16.7708 26.2708 15.1875 27.9375C13.5208 29.6042 11.4583 30.4375 9 30.4375ZM33.8125 30.4375C31.1875 30.4375 29.0417 29.6042 27.375 27.9375C25.7083 26.2708 24.875 24.125 24.875 21.5C24.875 18.1667 26.2292 14.5417 28.9375 10.625C31.7292 6.66667 35.4375 3.125 40.0625 0L42 1.9375C40.2083 3.85417 38.7917 5.625 37.75 7.25C36.75 8.83333 36.25 10.125 36.25 11.125C36.25 11.9583 36.5833 12.6458 37.25 13.1875C37.4583 13.3958 38.0208 13.8958 38.9375 14.6875C39.8958 15.4792 40.7292 16.4167 41.4375 17.5C42.0625 18.5 42.375 19.8333 42.375 21.5C42.375 24.125 41.5833 26.2708 40 27.9375C38.3333 29.6042 36.2708 30.4375 33.8125 30.4375Z" fill="url(#paint0_linear_42_479)"/>
<defs>
<linearGradient id="paint0_linear_42_479" x1="-9.875" y1="49.75" x2="18.4519" y2="57.4946" gradientUnits="userSpaceOnUse">
<stop stop-color="#B32482"/>
<stop offset="1" stop-color="#75317A"/>
</linearGradient>
</defs>
</svg>
